<svg width="41" height="40" viewBox="0 0 41 40" fill="none" xmlns="http://www.w3.org/2000/svg">
<path d="M20.746 40C31.7917 40 40.746 31.0457 40.746 20C40.746 8.9543 31.7917 0 20.746 0C9.70031 0 0.746002 8.9543 0.746002 20C0.746002 31.0457 9.70031 40 20.746 40Z" fill="#F3BA2F"/>
<path d="M15.891 18.005L20.746 13.15L25.6035 18.0075L28.4285 15.1825L20.746 7.5L13.066 15.18L15.891 18.005ZM8.246 20L11.071 17.175L13.896 20L11.071 22.825L8.246 20ZM15.891 21.995L20.746 26.85L25.6035 21.9925L28.4285 24.8162L20.746 32.5L13.066 24.82L13.0623 24.8162L15.891 21.995ZM27.596 20L30.421 17.175L33.246 20L30.421 22.825L27.596 20ZM23.611 19.9975H23.6135V20L20.746 22.8675L17.8823 20.005L17.8773 20L17.8823 19.9963L18.3835 19.4938L18.6273 19.25L20.746 17.1325L23.6123 19.9987L23.611 19.9975Z" fill="white"/>
</svg>
