<svg width="41" height="40" viewBox="0 0 41 40" fill="none" xmlns="http://www.w3.org/2000/svg">
<path d="M20.746 40C31.7917 40 40.746 31.0457 40.746 20C40.746 8.9543 31.7917 0 20.746 0C9.70031 0 0.746002 8.9543 0.746002 20C0.746002 31.0457 9.70031 40 20.746 40Z" fill="#F7931A"/>
<path d="M29.7323 17.525C30.1248 14.905 28.1285 13.4963 25.401 12.5563L26.286 9.00625L24.126 8.46875L23.2635 11.925C22.696 11.7825 22.1135 11.65 21.5323 11.5175L22.401 8.03875L20.241 7.5L19.356 11.0487C18.886 10.9412 18.4235 10.8363 17.976 10.7238L17.9785 10.7125L14.9985 9.96875L14.4235 12.2762C14.4235 12.2762 16.0273 12.6438 15.9935 12.6663C16.8685 12.885 17.026 13.4637 16.9998 13.9237L15.9923 17.9675C16.0523 17.9825 16.1298 18.005 16.2173 18.0387L15.9885 17.9825L14.576 23.6475C14.4685 23.9125 14.1973 24.3112 13.5848 24.16C13.6073 24.1912 12.0148 23.7687 12.0148 23.7687L10.9423 26.2412L13.7548 26.9425C14.2773 27.0738 14.7898 27.2113 15.2935 27.34L14.3998 30.93L16.5585 31.4675L17.4435 27.9175C18.0335 28.0763 18.606 28.2237 19.166 28.3638L18.2835 31.8987L20.4435 32.4362L21.3373 28.8538C25.0223 29.5513 27.7923 29.27 28.9585 25.9375C29.8985 23.255 28.9123 21.7063 26.9735 20.6975C28.386 20.3725 29.4485 19.4438 29.7323 17.525ZM24.7948 24.4475C24.1285 27.1313 19.6098 25.68 18.1448 25.3162L19.3323 20.56C20.7973 20.9262 25.4935 21.65 24.7948 24.4475ZM25.4635 17.4862C24.8548 19.9275 21.0948 18.6863 19.876 18.3825L20.951 14.07C22.1698 14.3737 26.0985 14.94 25.4635 17.4862Z" fill="white"/>
</svg>
