<svg width="41" height="40" viewBox="0 0 41 40" fill="none" xmlns="http://www.w3.org/2000/svg">
<path d="M20.746 40C31.7917 40 40.746 31.0457 40.746 20C40.746 8.9543 31.7917 0 20.746 0C9.70031 0 0.746002 8.9543 0.746002 20C0.746002 31.0457 9.70031 40 20.746 40Z" fill="#627EEA"/>
<path d="M21.3685 5V16.0875L30.7398 20.275L21.3685 5Z" fill="white" fill-opacity="0.602"/>
<path d="M21.3685 5L11.996 20.275L21.3685 16.0875V5Z" fill="white"/>
<path d="M21.3685 27.46V34.9937L30.746 22.02L21.3685 27.46Z" fill="white" fill-opacity="0.602"/>
<path d="M21.3685 34.9937V27.4587L11.996 22.02L21.3685 34.9937Z" fill="white"/>
<path d="M21.3685 25.7162L30.7398 20.275L21.3685 16.09V25.7162Z" fill="white" fill-opacity="0.2"/>
<path d="M11.996 20.275L21.3685 25.7162V16.09L11.996 20.275Z" fill="white" fill-opacity="0.602"/>
</svg>
