<svg width="18" height="20" viewBox="0 0 18 20" fill="none" xmlns="http://www.w3.org/2000/svg">
<path fill-rule="evenodd" clip-rule="evenodd" d="M14.6176 20L2.95096 20C1.57262 20 0.450958 18.8792 0.450958 17.5L0.450958 9.16667C0.450958 7.78833 1.57262 6.66667 2.95096 6.66667H3.78429L3.78429 5C3.78429 2.24333 6.02679 0 8.78429 0C11.5418 0 13.7843 2.24333 13.7843 5V6.66667H14.6176C15.996 6.66667 17.1176 7.78833 17.1176 9.16667V17.5C17.1176 18.8792 15.996 20 14.6176 20ZM8.78429 1.66667C6.94596 1.66667 5.45096 3.16167 5.45096 5V6.66667L12.1176 6.66667V5C12.1176 3.16167 10.6226 1.66667 8.78429 1.66667ZM15.451 9.16667C15.451 8.70667 15.0768 8.33333 14.6176 8.33333L2.95096 8.33333C2.49179 8.33333 2.11762 8.70667 2.11762 9.16667L2.11762 17.5C2.11762 17.9592 2.49179 18.3333 2.95096 18.3333L14.6176 18.3333C15.0768 18.3333 15.451 17.9592 15.451 17.5L15.451 9.16667ZM9.61762 13.1017L9.61762 15C9.61762 15.46 9.24429 15.8333 8.78429 15.8333C8.32429 15.8333 7.95096 15.46 7.95096 15V13.1017C7.45512 12.8125 7.11762 12.2808 7.11762 11.6667C7.11762 10.7475 7.86512 10 8.78429 10C9.70346 10 10.451 10.7475 10.451 11.6667C10.451 12.2808 10.1135 12.8125 9.61762 13.1017Z" fill="#495057"/>
</svg>
